<?xml version="1.0" standalone="no"?>
<!DOCTYPE svg PUBLIC "-//W3C//DTD SVG 1.1//EN" "http://www.w3.org/Graphics/SVG/1.1/DTD/svg11.dtd">
<svg xmlns="http://www.w3.org/2000/svg">
<metadata>Generated by Fontastic.me</metadata>
<defs>
<font id="bi-categs" horiz-adv-x="512">
<font-face font-family="bi-categs" units-per-em="512" ascent="480" descent="-32"/>
<missing-glyph horiz-adv-x="512" />

<glyph glyph-name="prd1000136" unicode="&#97;" d="M462 93l-406 0c-9 0-16 7-16 17 0 9 7 16 16 16l406 0c9 0 17-7 17-16 0-10-8-17-17-17m-367 234l331 0-159 113z m384-34l-439 0c-8 0-14 5-16 12-2 7 0 15 7 19l227 151c6 3 13 3 19-1l211-150c6-4 9-12 7-19-3-7-9-12-16-12m-353-182c-9 0-16 7-16 15l0 174c0 8 7 15 16 15 8 0 15-7 15-15l0-174c0-8-7-15-15-15m87 0c-8 0-15 7-15 15l0 174c0 8 7 15 15 15 9 0 16-7 16-15l0-174c0-8-7-15-16-15m92 0c-8 0-15 7-15 15l0 174c0 8 7 15 15 15 9 0 16-7 16-15l0-174c0-8-7-15-16-15m88 0c-9 0-16 7-16 15l0 174c0 8 7 15 16 15 8 0 15-7 15-15l0-174c0-8-7-15-15-15m94-74l-463 0c-9 0-16 7-16 17 0 9 7 16 16 16l463 0c9 0 17-7 17-16 0-10-8-17-17-17"/>
<glyph glyph-name="prd2280" unicode="&#98;" d="M45 42l424 0 0 424-424 0z m443-38l-462 0c-10 0-19 9-19 19l0 462c0 11 9 19 19 19l462 0c11 0 19-8 19-19l0-462c0-10-8-19-19-19m-123 361l-2 0c-11 0-19 9-19 19 0 11 8 19 19 19l2 0c11 0 19-8 19-19 0-10-8-19-19-19m42-123l-78 0c-11 0-19 8-19 19 0 10 8 19 19 19l78 0c10 0 19-9 19-19 0-11-9-19-19-19m-167-99l-147 0c-10 0-19 9-19 19 0 11 9 19 19 19l147 0c10 0 18-8 18-19 0-10-8-19-18-19m67 222l-3 0c-10 0-18 9-18 19 0 11 8 19 18 19l3 0c10 0 19-8 19-19 0-10-9-19-19-19m58-58l-2 0c-11 0-19 9-19 19 0 11 8 19 19 19l2 0c11 0 19-8 19-19 0-10-8-19-19-19m61 58l-3 0c-10 0-19 9-19 19 0 11 9 19 19 19l3 0c10 0 19-8 19-19 0-10-9-19-19-19m0-58l-3 0c-10 0-19 9-19 19 0 11 9 19 19 19l3 0c10 0 19-8 19-19 0-10-9-19-19-19m-119 0l-3 0c-10 0-18 9-18 19 0 11 8 19 18 19l3 0c10 0 19-8 19-19 0-10-9-19-19-19m-57-72l-167 0 0 167 167 0z"/>
<glyph glyph-name="prd1000247" unicode="&#99;" d="M452 390c7-39 2-76-14-110-16-34-42-54-77-60-22-4-44-4-66-1 0 0-61-99-61-99 0 0-36-6-36-6 0 0-53-85-53-85-5-10-12-15-23-17 0 0-39-7-39-7-4-1-8-1-12 2-3 3-5 7-6 11 0 0-8 51-8 51-3 10-1 19 6 28 0 0 132 198 132 198-8 17-14 37-19 61-6 37 3 68 27 96 24 28 56 45 95 52 36 7 69-1 100-23 30-22 48-53 54-91m-64-39c10 15 14 32 11 50-3 18-12 32-27 42-14 11-30 15-47 12-17-4-30-13-41-28-2-4-4-8-6-12-1-4-1-7 0-10 1-3 2-6 2-8 1-3 3-5 7-9 4-3 7-6 9-8 3-1 6-4 11-8 6-4 10-6 12-8 2-2 6-5 11-9 6-4 10-7 12-8 3-1 6-3 10-6 4-3 7-4 10-4 2 0 5 0 8 0 4 1 7 2 10 5 2 2 5 5 8 9"/>
<glyph glyph-name="prd2794" unicode="&#100;" d="M303 289c-17 30-50 43-74 30l-6-4c-22-13-28-46-13-75l102 0c3 15 0 33-9 49m-265-129c-5 12-5 25 0 36l0 29c0 8 7 15 16 15l29 0 238 216c7 7 17 10 27 10 11 0 22-5 30-13l89-98c7-8 11-19 11-29-1-11-6-21-14-28l-64-59c5-2 9-8 9-14l0-18 76 68c14 13 22 30 23 49 1 19-6 37-19 51l-89 98c-13 15-32 23-52 23-18 0-35-6-48-18l-273-247c-29-27-31-71-5-100l16-18z m126-151c13 0 26 4 37 11l-75 0c11-7 24-11 38-11m-120 142l19-21 140 0 0-20-121 0 9-11 87 0 0-21-68 0 24-25c14-16 41-17 57-3l121 110-274 0c2-3 4-6 6-9m-4 48l316 0 44 40c-2 1-4 1-6 1l-82 0c-3-12-10-23-21-29l-5-4c-24-13-57 0-74 30-1 1-1 2-2 3l-127 0-36-32c-3-2-5-6-7-9m30-121l-14 0 0 15-18 20 0-77c0-9 7-16 16-16l72 0c-5 4-10 8-15 12z m141-50c-3-3-6-5-10-8l193 0c8 0 15 7 15 16l0 124-52 0z m1 209c17-30 50-43 74-30l5 4c11 6 18 17 21 29l-102 0c1-1 1-2 2-3m145-77l-45 0-121-110c-16-14-43-13-57 3l-24 25-40 0 41-46c5-4 10-8 15-12l75 0c4 3 7 5 10 8z m-301-61l35 0-9 11-26 0 0 20 7 0-19 21c-2 3-4 6-6 9l0 0 0-47 18-20z m-9 109l36 32-29 0c-9 0-16-7-16-15l0-26 2 0c2 3 4 7 7 9m353 31l-44-40 45 0 8 8 0 18c0 6-4 12-9 14m-56 182l2 0c8 0 15 6 15 15 0 8-7 15-15 15l-2 0c-9 0-16-7-16-15 0-9 7-15 16-15m98-113l2 0c9 0 16 7 16 15 0 9-7 15-16 15l-2 0c-8 0-15-6-15-15 0-8 7-15 15-15"/>
<glyph glyph-name="prd1001378" unicode="&#101;" d="M225 244l-3 0c-10 0-19 8-19 19 0 10 9 18 19 18l3 0c10 0 18-8 18-18 0-11-8-19-18-19m-65 0l-3 0c-10 0-18 8-18 19 0 10 8 18 18 18l3 0c10 0 18-8 18-18 0-11-8-19-18-19m65-57l-3 0c-10 0-19 8-19 18 0 11 9 19 19 19l3 0c10 0 18-8 18-19 0-10-8-18-18-18m-65 0l-3 0c-10 0-18 8-18 18 0 11 8 19 18 19l3 0c10 0 18-8 18-19 0-10-8-18-18-18m115 134l-165 0 0 98 165 0z m-159 5l154 0 0 87-154 0z m159-10l-165 0c-2 0-5 2-5 5l0 98c0 2 3 5 5 5l165 0c3 0 5-3 5-5l0-98c0-3-2-5-5-5m86-309l-314 0c-10 0-19 8-19 19l0 460c0 10 9 19 19 19l280 0c10 0 19-9 19-19l0-378 60 0c11 4 52 20 45 54-4 20-14 34-25 48-14 20-31 42-31 81 0 10 8 19 18 19 10 0 19-8 19-19 1-26 11-41 24-59 12-16 26-34 31-63 12-57-42-89-72-98-2 0-4-1-6-1l-82 0c-10 0-19 9-19 19l0 378-242 0 0-423 295 0c11 0 19-8 19-18 0-11-8-19-19-19m33 251l0 101 69 0c0 0-9-101-69-101m19 82l0-57c15 12 24 39 28 57z m-19-101c-10 0-18 8-18 19l0 101c0 10 8 18 18 18l69 0c5 0 10-2 14-6 3-4 5-9 4-14-3-44-26-118-87-118m18 90c-7 0-14 5-15 13-3 21-10 91 16 114 26 23 54 26 56 26 8 1 15-5 16-13 1-9-5-16-13-17-1 0-21-2-39-18-10-9-11-53-6-88 1-8-5-16-13-17-1 0-1 0-2 0"/>
<glyph glyph-name="prd1000500" unicode="&#102;" d="M452 500c-4 2-8 1-12-2-23-24-55-37-88-37-38 0-74 17-98 47-4 5-13 5-17 0-24-30-60-47-98-47-34 0-65 13-89 37-3 3-7 4-11 2-4-2-7-5-7-10l0-316c0 0 0-1 0-2 1-5 24-119 210-172 1 0 2 0 3 0 1 0 2 0 3 0 187 53 210 167 210 172 1 1 1 2 1 2l0 316c0 5-3 8-7 10z m-15-325c-1-4-7-29-31-58-24-29-72-70-161-95-88 25-136 66-160 95-24 29-31 54-32 58l0 292c25-18 55-27 86-27 40 0 79 16 106 45 28-29 66-45 107-45 31 0 61 9 85 27z m-149 220l-85 0 0-86-86 0 0-85 86 0 0-85 85 0 0 85 85 0 0 85-85 0z m64-107l0-43-85 0 0-85-43 0 0 85-85 0 0 43 85 0 0 85 43 0 0-85z"/>
<glyph glyph-name="prd1001359" unicode="&#103;" d="M257 355c-11 0-21-9-21-21 0-11 10-20 21-20 12 0 21 9 21 20 0 12-9 21-21 21m5-159c-11 3-23-4-25-15-3-12 4-23 16-25 11-3 22 4 24 15 3 12-4 23-15 25m74 80c-11 0-20-9-20-21 0-11 9-21 20-21 12 0 21 10 21 21 0 12-9 21-21 21m-137-21c0 12-10 21-21 21-11 0-21-9-21-21 0-11 10-21 21-21 11 0 21 10 21 21m131 44c9 8 9 21 0 29-8 9-21 9-29 0-8-8-8-21 0-29 8-8 21-8 29 0m-150-88c-8-8-8-21 0-29 8-8 21-8 29 0 8 8 8 21 0 29-8 9-21 9-29 0m121 0c-8-8-8-21 0-29 8-8 21-8 29 0 9 8 9 21 0 29-8 8-21 8-29 0m-117 117c-8-8-8-21 0-29 8-8 21-8 29 0 8 8 8 21 0 29-8 9-21 9-29 0m73-213c-77 0-140 63-140 140 0 78 63 140 140 140 78 0 140-62 140-140 0-77-62-140-140-140m235 172l-17 0c-5 38-20 72-41 100l0 1 11 11c3 3 3 6 0 9l-36 36c-2 2-6 2-8 0l-12-11 0-1c-29 21-63 36-100 41l0 17c0 4-3 6-6 6l-52 0c-3 0-5-2-5-6l0-17c-38-5-72-20-100-41l-1 1-11 11c-3 2-6 2-9 0l-36-36c-1-2-2-3-2-5 0-1 1-3 2-4l11-11 1-1c-22-28-36-62-42-100l-16 0c-4 0-6-2-6-5l0-52c0-3 2-6 6-6l16 0c5-37 20-71 41-100l0-1 0 0-11-11c-2-2-2-6 0-8l36-36c1-2 3-2 5-2 1 0 3 0 4 2l10 10 1 1c29-22 63-37 101-42l0-16c0-3 2-6 5-6l52 0c3 0 6 3 6 6l0 16c37 5 72 20 100 42l1-1 11-10c1-2 2-2 4-2 1 0 3 0 4 2l36 36c3 2 3 6 0 8l-10 11-1 1c22 29 36 63 41 100l17 0c3 0 6 3 6 6l0 52c0 3-3 5-6 5"/>
<glyph glyph-name="prd1000597" unicode="&#104;" d="M37 219l493 0c5 0 10-1 13-5 4-4 6-8 6-13l0-128-74 0 0 73-438 0 0-73-74 0 0 348c0 5 2 9 6 12 3 4 8 6 13 6l36 0c5 0 10-2 13-6 4-3 6-7 6-12z m164 92c0 20-7 37-21 52-15 14-32 21-52 21-20 0-37-7-52-21-14-15-21-32-21-52 0-20 7-38 21-52 15-14 32-21 52-21 20 0 37 7 52 21 14 14 21 32 21 52z m348-73l0 18c0 30-11 56-33 78-21 21-47 32-77 32l-201 0c-5 0-10-2-13-6-4-3-6-8-6-13l0-109z"/>
<glyph glyph-name="prd1000834" unicode="&#105;" d="M368 110c-2 0-3 1-5 1-11 3-17 13-15 24l77 309-352-202c-10-5-22-2-28 8-5 9-2 21 8 27l393 225c7 4 16 3 22-1 6-5 9-13 7-21l-88-354c-2-10-10-16-19-16m-111 147c0-19-18-34-41-34-22 1-40 17-40 36 1 19 19 34 42 34 22-1 40-17 39-36m45-29c19-6 28-28 21-50-7-21-27-33-46-28-18 6-27 28-20 50 7 21 27 34 45 28m47 119c16-10 19-34 6-52-12-19-35-26-51-15-16 11-19 34-6 53 12 19 35 25 51 14m-26-322c-151 52-209 103-273 200-24 35 3 87 31 37 45-93 168-171 264-198 27-26 13-54-22-39m-264 239c-2-6-3-18 4-30 60-90 114-142 265-194 1 0 1 0 1 0 8-3 12-3 13-3 1 2-1 7-6 13-99 29-222 108-270 204-3 5-5 8-7 10m281-260c-7 0-15 2-23 5-160 55-218 111-281 207-13 20-16 47-6 65 6 12 16 18 28 18 14 0 26-10 37-29 0-1 0-1 1-1 43-88 163-163 254-189 2 0 5-2 7-4 16-16 23-36 16-52-5-12-17-20-33-20"/>
<glyph glyph-name="prd1000898" unicode="&#106;" d="M238 494l0-183c0-12-4-22-10-32-7-9-16-16-27-20l0-222c0-10-3-19-11-26-7-7-16-11-25-11l-37 0c-10 0-18 4-26 11-7 7-11 16-11 26l0 222c-10 4-19 11-26 20-7 10-10 20-10 32l0 183c0 5 2 9 5 13 4 3 8 5 13 5 5 0 9-2 13-5 4-4 5-8 5-13l0-119c0-5 2-9 6-13 3-4 8-5 13-5 5 0 9 1 13 5 3 4 5 8 5 13l0 119c0 5 2 9 5 13 4 3 8 5 13 5 5 0 10-2 13-5 4-4 6-8 6-13l0-119c0-5 1-9 5-13 4-4 8-5 13-5 5 0 9 1 13 5 3 4 5 8 5 13l0 119c0 5 2 9 6 13 3 3 7 5 12 5 5 0 10-2 13-5 4-4 6-8 6-13z m219 0l0-457c0-10-3-19-11-26-7-7-16-11-25-11l-37 0c-10 0-18 4-26 11-7 7-11 16-11 26l0 146-64 0c-2 0-4 1-6 3-2 1-3 4-3 6l0 229c0 25 9 46 27 64 18 18 40 27 65 27l73 0c5 0 9-2 13-5 3-4 5-8 5-13z"/>
<glyph glyph-name="prd1001872" unicode="&#107;" d="M432 36l-57 15-15 58 42 42 57-16 15-58z m-218 207l11-12 6-6 5-5-37-42-6-7-83-95c-3-4-8-6-12-6-1 0-2 1-3 1-3 0-6 1-8 3-3 2-4 5-5 8-1 5-1 11 3 16l52 59 75 87z m-69-207c-3-4-8-6-12-6-4 0-8 2-11 4-5 5-7 11-5 17 1 3 2 5 3 7l88 100 6 6 36 42 2-2 6-6 10-11 5-5z m336 121c-28 28-70 33-104 17l-16 16 8 8-58 59 100 112 40 2c4 0 8 2 10 6l43 99c1 4 1 8-2 11l0 0-1 1-16 15-1 1 0-1c-4 3-8 3-12 1l-95-52c-3-2-6-6-5-10l2-39c0-2 0-3 1-4l-98-109-53 54-8-8-32 32 8 8 2 64-51 55-70 10 66-67-11-53-56-13-67 68 11-66 54-54 63-3 11 12 32-33-8-7 27-27-149-166c-2-3-3-6-3-10 0-3 2-7 4-9l79-69c2-2 5-3 9-3 3 0 7 1 9 4l143 159 26-26 8 8 16-16c-17-34-12-76 16-104 35-35 92-36 127-1 36 35 36 92 1 128"/>
<glyph glyph-name="prd1001040" unicode="&#108;" d="M78 154l378-80 0 371-378-40z m396-113l-413 80c-10 0-18 8-18 17l0 284c0 9 8 17 18 17l413 40c10 0 18-8 18-17l0-404c0-9-8-17-18-17m-164 165l-117-68c-3-1-6-2-9-2-7 0-14 4-18 12-5 10 0 21 10 26l117 68c10 5 22 0 27-10 4-10 0-22-10-26m-211-35c-7 0-14 4-17 10-5 10-2 22 8 28l199 108c10 6 22 2 27-8 5-9 2-21-8-27l-199-109c-3-1-6-2-10-2m266 203l-337-32c-8 0-14-6-14-14l0-231c0-7 6-13 14-13l337-65c8 0 14 6 14 13l0 329c0 7-6 13-14 13"/>
<glyph glyph-name="prd1000922" unicode="&#109;" d="M368 279l-2 0 0 22c0 20-17 36-36 36l-32 0 0 27 73 0c23 0 42 19 42 42 0 23-19 42-42 42l-81 0c-7 11-20 18-34 18-14 0-27-7-34-18l-81 0c-23 0-42-19-42-42 0-23 19-42 42-42l73 0 0-27-32 0c-19 0-36-16-36-36l0-22-2 0c-80 0-144-64-144-144l0-89 96 0 0 89c0 27 21 48 48 48l2 0 0-22c0-19 17-36 36-36l148 0c19 0 36 17 36 36l0 22 2 0c27 0 48-21 48-48l0-89 96 0 0 89c0 80-64 144-144 144z"/>
<glyph glyph-name="prd1000390" unicode="&#110;" d="M393 380l-36 0 0 103c0 16-13 29-29 29-15 0-28-13-28-29l0-103-87 0 0 103c0 16-13 29-29 29-16 0-29-13-29-29l0-103-35 0c-10 0-18-8-18-17l0-52c0-10 8-17 18-17l7 0 0-117c0-6 3-11 7-14l70-52 0-94c0-10 8-17 17-17l70 0c10 0 17 7 17 17l0 94 70 52c4 3 7 8 7 14l0 117 8 0c9 0 17 7 17 17l0 52c0 9-8 17-17 17z"/>
<glyph glyph-name="prd1001356" unicode="&#111;" d="M470 267l-205 178c-5 4-13 4-18 0l-73-64 0 26c0 15-12 27-27 27-15 0-28-12-28-27l0-73-77-67c-6-5-6-14-1-19 5-6 13-7 19-2l196 170 196-170c3-2 6-3 9-3 4 0 8 2 10 5 5 5 5 14-1 19z m-197 79c-5 4-11 6-17 6-6 0-12-2-17-6l-137-112c-6-5-10-13-10-21l0-134c0-15 12-27 27-27l82 0 0 136 110 0 0-136 82 0c15 0 27 12 27 27l0 134c0 8-4 16-10 21z"/>
<glyph glyph-name="prd1001993" unicode="&#112;" d="M435 74c8 0 15 6 15 14l0 336c0 8-7 14-15 14l-347 0c-8 0-15-6-15-14l0-336c0-8 7-14 15-14z m-333 337l319 0 0-310-319 0z m223-123l-39 0 0 38c0 14-11 25-24 25-14 0-25-11-25-25l0-38-39 0c-13 0-24-12-24-25 0-14 11-25 24-25l39 0 0-38c0-5 1-8 3-12 4-8 12-13 22-13 9 0 17 5 21 13 2 4 3 7 3 12l0 38 39 0c13 0 25 11 25 25 0 13-12 25-25 25z"/>
<glyph glyph-name="prd1000213" unicode="&#113;" d="M355 241c-5 0-9-4-9-9l0-191c0-3 1-5 2-7 2-1 4-2 7-2l73 0c2 0 5 0 6 2 2 2 3 4 3 7l1 191c0 2-1 5-3 7-2 1-4 2-7 2l-19 0 0 113 20 19c2 2 3 5 2 8l-24 72c-1 3-3 5-6 5l0 1-1 0-15 0-1 0 0 0c-3-1-6-3-7-5l-25-72c-1-3 0-6 2-8l19-20c1 0 2-1 3-1l-1-112z m46-29c0 5 5 10 10 10 5 0 10-5 10-10l0-154c0-6-5-10-10-10-5 0-10 4-10 10z m-19 0l0-154c0-6-4-10-10-10-5 0-9 4-9 10l0 154c0 5 4 10 9 10 6 0 10-5 10-10z m-140 180l0 33c7 2 21 6 32-2 14-11 51-31 51-31 0 0-21 48-43 63-10 7-31 12-40 14l0 0-3 0c0 0 0 0 0 0l0 0-94 0 0-12-24 14-47 9 0-90 47 9 24 18 0-25 27 0 0-78-20 0 0-274 90 0 0 274-20 0 0 78z"/>
<glyph glyph-name="prd854" unicode="&#114;" d="M84 201c-7-151 102-25 102 13-49-41-102-13-102-13z m56 61l53 13c-19 41-53-13-53-13z m-68 39l44-35c0 0-16 67-44 35z m199 111c-22 24-32 6-36-28-17-10-37-15-60-15-61 0-122 36-123 36-1 1-4 1-5 0-2-1-3-3-3-5 0-1-3-192 10-277 4-22 18-34 40-34 54 0 145 69 148 72 1 1 2 2 2 3 1 3 3 10 6 20 31-31 137-131 161-62 28 82 58 270 58 270 0 0-134-51-198 20z m-37-243c-12-9-93-69-140-69-17 0-26 8-29 25-11 73-11 227-10 266 19-10 69-34 120-34 22 0 42 5 58 13-4-64 7-164 8-175-2-9-4-18-7-26z m122 103l-51 21c27 37 51-21 51-21z m73 27l-49-28c0 0 27 63 49 28z m-20-138c0 0-37 24-68-16-6 30 48 135 68 16z"/>
<glyph glyph-name="prd10078677" unicode="&#115;" d="M356 340c-30 0-194 0-194 0-18 0-56-14-59-48-4-34 0-184 0-184l308 0c0 0 0 169 0 186 0 16-25 46-55 46z m38-126c0 0-17 105-86 115 0 0 51 4 69-10 22-19 17-105 17-105z m-50 149c2 0 4 1 4 3l0 87c0 2-2 3-4 3l-176 0c-2 0-4-1-4-3l0-87c0-2 2-3 4-3z m-158 66c0 6 6 11 15 11l110 0c9 0 15-5 15-11l0-38c0-7-6-12-15-12l-33 0 0 41c0 1-1 2-3 2l-38 0c-2 0-3-1-3-2l0-41-33 0c-9 0-15 5-15 12l0 38z m200-345l-260 0c-2 0-4-1-4-3l0-23c0-1 2-2 4-2l260 0c2 0 4 1 4 2l0 23c0 2-2 3-4 3z"/>
<glyph glyph-name="prd12522" unicode="&#116;" d="M312 425c-27-84-92-69-112 0l-63 0-86-63c0 0-4-61 29-76l61 39 4-238 222 0 4 238 61-39c29 19 29 76 29 76l-86 63z"/>
<glyph glyph-name="prd10050" unicode="&#117;" d="M173 101c29 0 52 23 52 52 0 28-23 51-52 51-28 0-51-23-51-51 0-29 23-52 51-52z m0 76c13 0 24-11 24-24 0-13-11-24-24-24-13 0-24 11-24 24 0 13 11 24 24 24z m218-76c29 0 52 23 52 52 0 28-23 51-52 51-28 0-51-23-51-51 0-29 23-52 51-52z m0 76c14 0 24-11 24-24 0-13-10-24-24-24-13 0-23 11-23 24 0 13 10 24 23 24z m-283 6l-7-6 0-31 7 0c0 47 28 74 65 74 37 0 67-30 67-67 0-5-1-9-2-14l88 0c-1 5-2 9-2 14 0 9 2 17 5 25 3 6 16 31 46 40 5 1 11 2 16 2 7 0 14-1 21-4 0 0 20-6 29-17 8-11 13-41 13-41 8 0 10 19 10 31 0 12-3 33-19 46-15 12-17 13-17 13l-16 48c12 2 22 14 22 27 0 14-10 25-22 28l-7 1c0 0-13 11-16 16-2 5-39 0-52 0-12 0-10-20 1-21 5-2 33 16 33 8 0-9 0-12 0-12l16-97c-19-2-53-25-58-46-5-20-18-20-34-20l-55 0c0 0 0 34 0 60 0 25 8 35 25 35 16 0 17 27 0 27-18 0-58 0-58 0l0 130-143 0 0-145 67 0z"/>
<glyph glyph-name="prd147" unicode="&#118;" d="M435 334c-13 6-33 5-52-10l0 5c0 3-1 6-3 8-3 3-6 4-9 4l-278 0c-6 0-11-5-11-12l0-80c0-72 48-116 106-131-8-18-45-31-59-34-4-1-7-5-6-9 0-4 4-7 8-7l203 0c4 0 7 3 8 7 0 4-3 8-7 9-14 3-49 15-57 35 34 9 65 29 84 59 2-5 6-9 11-14 2-2 6-3 9-3 4 0 7 2 10 5 5 6 4 14-1 19-5 4-5 6-5 6 0 5 14 15 23 21 19 13 43 30 50 55 9 35-5 58-24 67z m-329-93c-1 5-2 9-2 14l0 60 52 0 1-66c1-31 9-84 51-102-48-3-92 36-102 94z m326 34c-4-17-23-30-39-41-5-3-9-7-14-10 2 8 2 16 2 24l1 35c15 24 32 30 42 26 8-4 13-16 8-34z m-76 155c0 8-6 14-14 14l-155 0c-7 0-13-5-14-12-1-7 3-13 10-15l41-11-39-5c-6-1-11-5-12-11-1-7 2-13 8-15l61-27c2-1 4-1 5-1 6 0 11 3 13 8 3 7 0 15-7 18l-15 7 59 7c6 1 11 6 12 13 0 6-4 12-10 14l-9 2 52 0c8 0 14 7 14 14z"/>
<glyph glyph-name="prd1000787" unicode="&#119;" d="M367 172c-1 0-3 0-5 0l-26-87c0 0 58 42 85 77-15 11-42 11-54 10z m-55 93c9-5 20-10 28-15 15 25 42 64 75 80-17 16-40 31-57 40z m120 44c0 0 0 1 0 1-29-12-58-53-74-80 3-10 5-23 6-33 0 0 0 0 0 0 2 0 43 5 70-13 11 34 3 114-2 125z m-355 12c36-7 67-46 83-71 9 5 20 11 30 16l-46 105c-19-11-51-30-67-50z m88-236l-27 89c-27 4-57 4-65-4 23-35 92-85 92-85z m-28 115c1 9 3 21 5 29-15 26-45 65-74 68-1 0-2 0-2 0-4-23-8-72-2-102 20 10 52 8 73 5z m119 226c-1 0-1 0-2 1l-2-1-3 1c-1-1-2-1-2-1-43-3-79-21-88-37-3-5-2-8-1-10l0 0 46-105 7-17c10-9 25-14 41-14 16 0 30 5 39 14l7 16 46 105 0 1c2 2 3 5 0 10-9 16-45 34-88 37z"/>
<glyph glyph-name="prd1002062" unicode="&#120;" d="M459 451c-2 2-5 3-9 2l-194-26-194 26c-3 1-7 0-9-2-2-2-4-6-4-9 0 0-1-346-1-355 0-9 6-16 16-16 9 0 376 0 386 0 9 0 14 8 14 18 0 9-1 353-1 353 0 3-1 7-4 9z m-19-314l-184-25-184 25 0 292 183-25c1 0 2 0 3 0l182 25z m-339 141l110-13c1 0 1 0 2 0 3 0 5 1 7 3 3 2 4 5 4 9l0 86c0 5-4 10-10 11l-110 13c-4 1-7 0-9-3-3-2-4-5-4-8l0-86c0-6 4-11 10-12z m144 98l0-225c0-7 5-12 11-12 6 0 12 5 12 12l0 225c0 6-6 11-12 11-6 0-11-5-11-11z m56-45c1 0 1 0 2 0l115 14c7 0 11 6 10 12 0 7-6 11-12 10l-116-13c-6-1-11-6-10-13 1-5 6-10 11-10z m0-53c1 0 1 0 2 0l115 14c7 0 11 6 10 12 0 7-6 11-12 10l-116-13c-6-1-11-6-10-13 1-5 6-10 11-10z m-84-40l-116 13c-6 1-12-3-13-10 0-6 4-12 10-12l116-13c0-1 1-1 1-1 6 0 11 5 12 11 0 6-4 11-10 12z m0-53l-116 13c-6 1-12-3-13-10 0-6 4-12 10-12l116-14c0 0 1 0 1 0 6 0 11 5 12 10 0 7-4 12-10 13z m84 40c1 0 1 0 2 0l115 14c7 0 11 6 10 12 0 7-6 11-12 10l-116-13c-6-1-11-6-10-13 1-5 6-10 11-10z m0-53c1 0 1 0 2 0l115 14c7 0 11 6 10 12 0 7-6 11-12 10l-116-13c-6-1-11-6-10-13 1-5 6-10 11-10z"/>
<glyph glyph-name="prd1002085" unicode="&#121;" d="M368 462c-4 2-9 1-12-2l-36-53-212 0c-5 0-10-3-12-8-2-5-2-11 2-15l136-165 0-124-96-19c-7-1-12-8-11-15 0-7 6-12 13-12l207 0c7 0 13 5 14 12 0 7-4 13-11 15l-89 19 0 124 134 165c3 5 4 10 2 15-3 5-7 8-13 8l-45 0 31 44c2 3 1 8-2 11z m-67-83l-14-20c-2 1-5 1-8 1-18 0-33-15-33-33 0-7 3-13 6-19l-24-36c-1 0-1-1-1-1l-90 108 164 0z m-54-133l-12 14c3 1 5 1 6 3l24 35c4-2 9-4 14-4 3 0 6 1 9 2z m109 133l-44-54c0 1 0 2 0 2 0 10-4 18-11 24l20 28z"/>
<glyph glyph-name="prd1001033" unicode="&#122;" d="M307 303c-78 82-243-39-243-76 0-29 18-54 44-63 95 28 113 12 109-79 12-19 33-32 57-32 38 0 112 169 33 250z m-173 33c-57 123 160 108 11-5z m124 29c-48 171 160 70 10-6z m92-73c19 199 178 25 9-8z m19-124c48 149 147-31 7-9z"/>
<glyph glyph-name="prd1000808" unicode="&#65;" d="M263 445l-82-148 40-54c0 0 122 139 42 202z m-56-294l0 0c-4-7-6-16-6-25 0-31 25-56 56-56 30 0 55 25 55 56 0 31-25 56-55 56-6 0-10-1-15-3l-174 262c-97-76 139-290 139-290z m78-25c0-16-13-29-28-29-16 0-29 13-29 29 0 16 13 29 29 29 15 0 28-13 28-29z m-186-56c31 0 56 25 56 56 0 9-2 17-6 25l12 26-33 34-16-31c-4 1-8 2-13 2-30 0-55-25-55-56 0-31 25-56 55-56z m0 85c16 0 29-13 29-29 0-16-13-29-29-29-15 0-28 13-28 29 0 16 13 29 28 29z m292-53l0 19 76 2 0 14-76-2-1 20 77 2-1 14-76-2-1 16 77 2-1 14-76-2 0 19 76 2 0 14-77-2 0 20 76 2 0 14-77-2 0 19 76 2 0 13-77-2 0 16 77 2-1 14-76-2-1 19 77 2-1 13-76-2-1 21 77 2-1 14-76-2-1 18 77 2 0 14c0 0-76 15-96 15-19-1-29-27-29-27l9-321c0 0 7-30 30-29 23 1 94 24 94 24l0 13z"/>
<glyph glyph-name="prd1001445" unicode="&#66;" d="M192 107l0 298c0 4-4 8-8 8l-151 0c-4 0-7-4-7-8l0-298c0-4 3-8 7-8l151 0c4 0 8 4 8 8z m-47 8l0-4-68 0 0 15 68 0z m22 36l-117 0 0 239 117 0z m312 233l-237 0c-5 0-8-4-8-8l0-182c0-5 3-8 8-8l106 0-17-49-57 0-16-33 206 0-14 33-54 0-12 49 95 0c4 0 7 3 7 8l0 182c0 4-3 8-7 8z m-17-161l-204 0 0 138 204 0z"/>
<glyph glyph-name="prd6780" unicode="&#67;" d="M360 63l0 386c0 5-4 9-9 9l-190 0c-5 0-9-4-9-9l0-386c0-5 4-9 9-9l190 0c5 0 9 4 9 9z m-136 380l59 0 0-9-59 0z m30-377c-9 0-16 7-16 16 0 9 7 16 16 16 8 0 15-7 15-16 0-9-7-16-15-16z m92 46l-182 0 0 303 182 0z"/>
<glyph glyph-name="prd1000553" unicode="&#68;" d="M94 219l0 12 7 0 0-94c0-4 4-8 9-8l26 0 0-5c0-5 4-9 9-9l26 0c5 0 9 4 9 9l0 107 153 0 0-107c0-5 4-9 8-9l27 0c5 0 9 4 9 9l0 5c0 0 1 0 1 0l27 0c4 0 8 4 8 8l0 94 5 0 0-11c0-3 2-5 4-5l27 0c3 0 5 2 5 5l0 72c0 3-2 5-5 5l-27 0c-2 0-4-2-4-5l0-11-5 0 0 94c0 4-4 8-8 8l-27 0c0 0-1 0-1 0l0 5c0 5-4 9-9 9l-27 0c-4 0-8-4-8-9l0-107-153 0 0 107c0 5-4 9-9 9l-26 0c-5 0-9-4-9-9l0-5-26 0c-5 0-9-4-9-8l0-94-7 0 0 10c0 3-2 5-4 5l-27 0c-3 0-5-2-5-5l0-72c0-3 2-5 5-5l27 0c2 0 4 2 4 5z"/>
<glyph glyph-name="prd1000574" unicode="&#69;" d="M109 49c-1-3 0-6 3-7 1-1 2-1 3-1 2 0 3 1 5 2l76 74-7-2c-2 0-3-1-5-1 0 0 0 1 0 1-3 0-5 0-8 2-2 1-4 3-6 5l-17 28-11-2-7-1-7-2z m147 146l-1 3-39-6c-7-1-13 2-16 8l-18 29-24-4-7-1-7-1-9-44 7 2 7 1 9 2c7 1 14-2 17-7l16-28 27 9 12 3c0 0 1 0 1 0 3 1 6 0 9-1l23 23-3 6z m59 226c-3-1-6 1-7 5-17 31-45 37-64 29-12-5-23-16-26-32-13 10-27 14-42 12-21-3-39-21-43-44-4-24 8-48 31-67l-13-68 6 1 7 1 24 4c6 1 13-2 16-8l17-29 40 6c7 1 13-2 17-8l2-5 3-6 4-6 41 40c0 1 1 2 1 3 4-1 9-2 13-2 23 0 41 11 51 26 10 15 12 39-9 62 19 7 27 19 30 29 9 28-10 62-29 82-19 19-39 28-54 24-5-1-8-6-8-11 2-25-4-37-8-38z m-113-100c-1 3-2 6-5 7-31 16-47 38-44 60 3 14 13 25 26 27 15 2 30-8 42-28 2-5 4-9 7-13 8-17 13-31 18-44 7-17 13-31 21-43z m173-37c-8-13-31-22-55-11-34 15-40 30-54 65-2 5-4 9-6 14 14-4 29-7 44-9 24-3 48-7 61-19 15-13 18-28 10-40z m-31 165c7-2 16-8 26-18 19-20 29-45 24-60-3-10-13-17-29-20-1 0-2-1-2-1-17 8-36 11-56 14-26 4-50 7-62 21 0 1-1 3-1 4-1 2-3 4-4 7-6 21 1 35 12 40 11 4 27 0 37-20 6-12 19-18 31-15 8 2 24 11 24 48z"/>
<glyph glyph-name="prd12554" unicode="&#70;" d="M377 190c0 0 0 1 0 1 6 15 10 30 10 45 11 30 29 46 44 58 16 14 30 26 19 52-4 11-12 18-22 20-29 5-68-31-76-40-7 9-14 15-20 20-8 7-12 15-11 23 4 27 59 51 59 52 1 0 1 1 1 1 0 1 0 1-1 1l-247 0c-1 0-2 0-2-1 0 0 1-1 1-1 1-1 55-25 59-52 1-8-2-16-10-23-6-5-13-12-20-20-8 8-48 45-77 40-10-2-18-9-22-20-11-26 3-38 19-52 15-12 33-28 45-60 0-14 3-27 9-41 0-1 0-2 0-3 0-2 1-4 3-5 9-19 23-39 43-58 29-29 54-44 73-44 1 0 1 0 2 0 1 0 2 0 3 0 19 0 43 15 73 44 19 19 33 39 43 59 1 0 2 2 2 4z m49 164c6-1 10-5 13-13 7-16 1-23-16-38-12-9-26-22-38-43-4 23-14 42-26 57 12 12 46 41 67 37z m-337-51c-17 15-23 22-16 38 3 8 7 12 13 13 21 4 55-25 67-37-11-16-22-35-26-57-12 21-26 33-38 43z"/>
<glyph glyph-name="prd1000649" unicode="&#71;" d="M112 188c-4 0-7-3-7-7l0-112c0-4 3-8 7-8l66 0c4 0 7 4 7 8 0 40 42 58 81 58 38 0 78-18 78-58 0-4 4-8 8-8l59 0c4 0 7 4 7 8l0 112c0 4-3 7-7 7z m338 37l0 45c0 4-3 7-7 7l-89 0 0 31c0 4-3 7-7 7l-53 0c-4 0-7-3-7-7l0-31-49 0 0 31c0 4-3 7-7 7l-53 0c-4 0-7-3-7-7l0-31-102 0c-4 0-7-3-7-7l0-45c0-4 3-7 7-7l374 0c4 0 7 3 7 7z m-184 247c-2 2-6 3-9 0l-149-127c-3-2-4-5-3-8 1-3 4-5 7-5l288 0c3 0 6 2 7 5 1 3 0 6-2 8z"/>
<glyph glyph-name="prd729" unicode="&#72;" d="M424 266c-3 26-6 52-11 81-5 26-16 42-39 51-5 2-9 3-35 4 2 5 3 27 3 35 0 15-22 44-29 44l-116 0c-7 0-29-29-29-44 0-8 2-30 4-35-26-1-29-3-34-5-15-6-33-22-36-37-7-34-12-64-15-94l-15 0c-10 0-19-8-19-19 0-10 9-18 19-18l12 0c-2-45-1-90 1-144 9-1 17-3 25-4 3-21-5-50 27-50 32 0 22 31 27 50 62 0 123 0 184 0 4-20-5-50 26-50 32 0 23 31 27 51 9 1 17 2 26 2 0 55 1 100-1 145l14 0c10 0 19 8 19 18 0 11-9 19-19 19z m-309-15c0 3 0 7 1 12 3 27 6 54 11 81 2 7 13 17 20 17 73 1 146 1 218 0 7 0 18-9 19-16 6-31 9-62 13-93 0-1 0-3 0-5 0-1 0-2 0-4-1-10-10-12-22-12-40 0-193 0-229 0-23 0-30 1-31 13 0 1 0 2 0 3 0 2 0 3 0 4z m30-132c-14 0-26 11-26 26 0 14 12 26 26 26 14 0 26-12 26-26 0-15-12-26-26-26z m228 0c-14 0-26 11-26 26 0 14 12 26 26 26 14 0 26-12 26-26 0-15-12-26-26-26z m-62 303l-104 0 0 36 104 0z"/>
<glyph glyph-name="prd1001128" unicode="&#73;" d="M456 302c0 17-8 31-18 31l-19 0c-2 21-5 43-9 64-4 24-15 46-37 55-74 27-163 28-236-1-14-6-31-29-34-43-5-24-9-65-12-90l-17 0c-10 0-18-14-18-31 0-18 8-32 18-32l12 0c-2-50-1-115 1-165 8-1 16-3 24-4 3-19-5-46 24-46 31-1 22 28 26 46 59 0 131 0 188 0 4-19-5-47 25-46 30 0 21 29 25 47 9 1 16 2 24 2 1 51 2 131 0 181l15 0c10 0 18 14 18 32z m-300 137l200 0c6 0 11-7 11-16 0-9-5-16-11-16l-200 0c-7 0-12 7-12 16 0 9 5 16 12 16z m28-299c0-8-7-15-15-15l-40 0c-8 0-15 7-15 15l0 15c0 9 7 15 15 15l40 0c8 0 15-6 15-15z m-39 117c-31 0-32 1-29 30 3 26 5 66 11 91 1 7 12 16 18 16 69 2 152 2 221 1 6-1 16-9 17-15 6-29 9-74 13-103 2-17-8-20-21-20-38 0-197 0-230 0z m253-117c0-8-7-15-15-15l-40 0c-8 0-15 7-15 15l0 15c0 9 7 15 15 15l40 0c8 0 15-6 15-15z"/>
<glyph glyph-name="prd10038423" unicode="&#74;" d="M116 168c6 2 12 4 19 4 6 0 13-2 18-4 14-6 24-18 28-33l149 0c4 15 14 26 27 32 6 3 13 5 20 5 7 0 14-2 21-5 12-7 21-18 25-32l41 0 0 56-12 0c3 4 5 10 5 15l0 109c0 22-16 66-53 66l-60 0c-18 0-19-18-19-40l0-135c0-5 1-11 3-15l-14 0 0 227-257 0 0-227-9 0 0-56 40 0c4 15 14 27 28 33z m315 28c-9 0-16 7-16 16 0 9 7 16 16 16 9 0 16-7 16-16 0-9-7-16-16-16z m-86 154l58 0c16 0 38-47 38-60l0-11-96 0 0 71z m61-226c0 4 0 8-2 11-4 11-15 19-27 19-13 0-24-8-28-19-1-3-2-7-2-11 0-16 13-30 30-30 16 0 29 14 29 30z m-271-30c16 0 29 14 29 30 0 4 0 8-2 11-4 11-15 19-27 19-13 0-24-8-28-19-1-3-2-7-2-11 0-16 13-30 30-30z"/>
<glyph glyph-name="prd1000439" unicode="&#75;" d="M116 245c0 0-4-83-3-119l6-3c3-14-3-34 19-34 22 0 15 21 18 34 12 0 188 0 200 0 3-13-4-34 18-34 22 0 16 20 19 34l6 3c1 36-3 119-3 119 8 0 29 1 29 8 0 7-6 13-13 13l-26 5c0 0-45 66-55 69-7 3-143 3-150 0-10-3-55-69-55-69l-26-5c-7 0-13-6-13-13 0-7 22-8 29-8z m44-85c-9 0-17 8-17 18 0 9 2 16 11 16 10 0 35-18 35-27 0-10-19-7-29-7z m192 0c-10 0-29-3-29 7 0 9 25 27 35 27 9 0 11-7 11-16 0-10-8-18-17-18z m-160 163c8 2 120 2 128 0 13-8 70-72 42-72-9 0-203 0-212 0-28 0 30 64 42 72z m272-8l-208 161c-3 2-7 2-10 0l-198-164c-2-2-3-4-3-6l0-264c0-4 3-8 8-8l406 0c5 0 8 4 8 8l0 267c0 2-1 5-3 6z m-391-253l0 234 179 148 187-145 0-236-366 0z"/>
<glyph glyph-name="prd2715" unicode="&#76;" d="M462 323l-34 6c0 0-59 87-73 92-9 3-189 3-198 0-14-5-73-92-73-92l-34-6c-9 0-17-8-17-17 0-10 28-11 38-11 0 0-5-109-4-158l9-3c3-19-5-45 24-45 29 0 20 28 24 45 16 0 248 0 264 0 4-17-5-45 24-45 29 0 21 26 24 45l9 3c1 49-4 158-4 158 10 0 38 1 38 11 0 9-8 17-17 17z m-332-141c-13 0-24 11-24 24 0 13 3 22 16 22 13 0 45-24 45-37 0-13-24-9-37-9z m252 0c-13 0-37-4-37 9 0 13 32 37 45 37 13 0 16-9 16-22 0-13-11-24-24-24z m13 120c-10 0-268 0-278 0-38 0 38 86 55 96 10 2 158 2 168 0 17-10 93-96 55-96z"/>
<glyph glyph-name="prd8614" unicode="&#77;" d="M136 216c-29 0-52-23-52-52 0-29 23-52 52-52 29 0 52 23 52 52 0 29-23 52-52 52z m0-69c-9 0-17 7-17 17 0 10 8 17 17 17 10 0 18-7 18-17 0-10-8-17-18-17z m237 69c-29 0-52-23-52-52 0-29 23-52 52-52 28 0 52 23 52 52 0 29-24 52-52 52z m0-69c-10 0-18 7-18 17 0 10 8 17 18 17 9 0 17-7 17-17 0-10-8-17-17-17z m59 107c-16 13-19 14-19 14l-17 51c14 3 24 16 24 30 0 15-10 28-24 31l-7 0c0 0-14 13-17 18-3 5-43 0-56 0-14 0-12-22 1-22 5-3 35 16 35 7 0-9 0-12 0-12l17-106c-21-2-57-27-63-49-5-22-19-22-37-22l-59 0c0 0 0 37 0 65 0 27 9 38 27 38 18 0 19 29 0 29-19 0-63 0-63 0l-83 1-24-130-8-7 0-33 7 0c1 51 31 80 71 80 40 0 73-33 73-73 0-5-1-10-2-15l95 0c-1 5-2 10-2 15 0 10 2 19 6 28 3 6 16 34 49 43 6 1 12 2 18 2 8 0 15-1 22-4 0 0 22-7 31-19 9-12 16-44 16-44 7 0 10 21 10 34 0 13-3 35-21 50z"/>
<glyph glyph-name="prd1000782" unicode="&#78;" d="M471 405l-15 23c0 0-12 5-60-15-45-17-107-72-127-95 0-10-7-21-19-29-11-7-23-8-32-5-29-9-106-42-141-76-37-36-38-49-38-49l15-23c0 0 13 7 22 1 10-5 33-40 77-51 47-12 93 30 104 47 10 18 16 42 14 57-1 16-6 40-11 55-5 11 9 23 20 21 1 0 1 0 2 0 0 0 0 0 0 0 1-1 2-1 2-1 0 0 0 0 0-1 1 0 1 0 2-1 0 0 1 0 1-1 2-2 2-2 2-1 11-11 29-24 42-32 14-7 38-12 58-10 20 2 55 24 63 31 8 7 17 19 23 44 10 34-13 80-15 91-1 11 11 20 11 20z m-244-275c-15-12-26-20-48-23-30-5-69 25-84 41-16 17-2 46 23 60 0 0 55 31 80 39 26 8 39-5 47-26 14-41-4-79-18-91z m220 149c-12-18-24-25-41-33-17-8-59-9-90 21-16 15-22 33-4 53 18 20 69 57 69 57 23 17 55 17 64-4 9-21 19-69 2-94z"/>
<glyph glyph-name="prd1000010" unicode="&#79;" d="M446 373l-177 0 0-27 162 0 0-302-62 0 0 72c0 3-2 5-5 5l-53 0c-2 0-4-2-4-5l0-72-226 0 0 302 40 0 0 27-55 0c-9 0-16-7-16-14l0-328c0-8 7-14 16-14l380 0c9 0 16 6 16 14l0 328c0 7-7 14-16 14z m-217-113l-2 0c-8 0-15-7-15-15 0-9 7-15 15-15l2 0c8 0 15 6 15 15 0 8-7 15-15 15z m-68 0l-2 0c-8 0-15-7-15-15 0-9 7-15 15-15l2 0c8 0 15 6 15 15 0 8-7 15-15 15z m68-74l-2 0c-8 0-15-7-15-15 0-8 7-15 15-15l2 0c8 0 15 7 15 15 0 8-7 15-15 15z m-68 0l-2 0c-8 0-15-7-15-15 0-8 7-15 15-15l2 0c8 0 15 7 15 15 0 8-7 15-15 15z m211 44l2 0c8 0 15 6 15 15 0 8-7 15-15 15l-2 0c-9 0-15-7-15-15 0-9 6-15 15-15z m-68 0l2 0c8 0 15 6 15 15 0 8-7 15-15 15l-2 0c-9 0-15-7-15-15 0-9 6-15 15-15z m68-74l2 0c8 0 15 7 15 15 0 8-7 15-15 15l-2 0c-9 0-15-7-15-15 0-8 6-15 15-15z m-68 0l2 0c8 0 15 7 15 15 0 8-7 15-15 15l-2 0c-9 0-15-7-15-15 0-8 6-15 15-15z m-75-40l-2 0c-8 0-15-7-15-15 0-8 7-15 15-15l2 0c8 0 15 7 15 15 0 8-7 15-15 15z m-68 0l-2 0c-8 0-15-7-15-15 0-8 7-15 15-15l2 0c8 0 15 7 15 15 0 8-7 15-15 15z m19 257l0 106c0 9-7 16-16 16-9 0-16-7-16-16l0-122c0-5 2-9 4-11 3-3 7-5 12-5 4 0 9 2 12 5 2 2 4 6 4 11z m45-27c5 2 8 7 8 13l0 75c0 8-7 16-16 16-8 0-16-8-16-16l0-75c0-6 4-11 9-13 2-2 5-3 7-3 3 0 6 1 8 3z"/>
<glyph glyph-name="prd1000234" unicode="&#80;" d="M385 330c-17 20-37 38-55 54-10 9-19 16-27 24-26 22-47 40-53 54-5-12-22-30-44-52-7-8-16-17-24-26-17-17-34-35-50-54-9-10-17-21-24-31-22-31-37-63-36-92 1-9 3-17 6-25 0 0 0 0 0 0 12-33 44-59 72-62 12-1 22 0 32 1 26 6 46 20 60 35l-14-33-31-73 119 0-26 68-15 39c12-17 29-34 55-39 10-2 20-3 33-1 36 6 63 31 72 65 1 0 1 0 1 0 2 10 4 21 4 32-2 32-15 61-34 88-6 10-13 19-21 28z"/>
<glyph glyph-name="prd10036299" unicode="&#81;" d="M320 370c22 0 38 4 41 34 3 19 17 31 39 28 5 23-56 61-97 11-35-43 5-74 17-73z m-243-212c-59-74 43-150 90-72 23 38 117 213 117 213 0 0-22 6-34 20-13 16-17 25-17 25 0 0-92-108-156-186z m38-32c-7-27 3-49 21-51 0 0-47-1-61 49-1 1 0 3 1 5l135 170c0 0-90-147-96-173z m338 231c0 0-48-30-42-30l-48-33c-1-1-2-2-2-3l-2-8-134-179 0-39 27-21 46 0 123 189 8 4c1 0 2 1 2 3l1 9 1 1-1 0 13 80z m-201-277c-1 0-3 1-4 2-4 2-5 7-2 11l106 153 10 15c0 0 1 1 1 1 3 3 7 3 10 1 4-3 4-8 2-11l-8-11-4-7-104-150c-2-2-4-4-7-4z m140 140l-110-165c-1-2-4-4-7-4-1 0-3 1-4 2-4 2-5 7-2 11l109 164 0 1c3 3 8 4 11 2 3-2 4-6 3-9 0-1 0-1 0-2z m32 29l-24-3-29 24 0 20 49 33c5-2 10-6 14-8z m-143 145c-1 0-2 0-2-1-1 0-17-26-31-30-6-1-9-4-10-7-2-9 7-19 16-29l2-2c7-8 27-20 36-20 3 0 4 1 5 2 1 1 1 3 0 6-3 10 16 36 24 45 0 0 1 1 0 2 0 1-1 1-2 2-28 5-36 29-36 30 0 1-1 2-2 2z"/>
<glyph glyph-name="prd1172" unicode="&#82;" d="M318 242c-2 1-3 2-3 2-9-7-11-12-11-17 0-8 5-13 12-14 8 0 15 6 14 13-1 5-3 9-8 13-1 1-2 1-4 3z m12 61c-7 0-12-4-12-10 0-5 2-9 7-13 1-1 1-1 4-3 2-1 3-2 3-2 8 8 10 11 10 17 0 7-5 11-12 11z m29 137c-40 0-81-17-104-50-22 33-64 50-104 50-32 0-62-11-84-31-26-23-39-57-39-98 0-102 75-143 115-166l5-2c6-4 12-7 17-10 40-22 65-35 76-73 0 0 1 0 1 0 0-2 1-3 2-5 0 0 0 0 0 0 1-1 2-2 4-3 0 0 0-1 0-1 1 0 2 0 2-1 1 0 1 0 2 0 1-1 3-1 4-1 0 0 0 0 0 0 0 0 0 0 1 0 1 0 2 0 4 1 0 0 0 0 0 0 0 0 0 0 1 0 1 1 3 2 4 2 0 1 0 1 1 1 1 1 2 2 3 4 20 33 50 61 93 86l5 2c40 23 115 64 115 166 0 41-14 75-39 98-22 20-52 31-85 31z m-168-182l-35 0-6-37-33 0 6 37-35 0 4 30 35 0 6 36 33 0-6-36 36 0z m65 17l-1-10-11-75-48 0 19 132 26 5 2 0 11 2 2 1 9 1-2-9 0-1z m126-46c0-11-7-23-16-31-11-8-26-13-45-13-17 0-33 5-45 12-11 8-18 19-18 32 0 12 5 22 14 29 2 2 6 3 11 5-9 9-12 16-12 28 0 11 6 23 15 29 10 8 25 12 40 12 18 0 30-3 41-10 12-7 18-18 18-31 0-14-6-23-20-31 12-11 17-19 17-31z"/>
<glyph glyph-name="chevron-circle-left" unicode="&#8592;" d="M296 113l29 30c4 3 6 7 6 12 0 5-2 10-6 13l-87 88 87 88c4 3 6 8 6 13 0 5-2 9-6 12l-29 30c-3 3-8 5-13 5-5 0-9-2-12-5l-130-130c-4-4-6-8-6-13 0-5 2-9 6-13l130-130c3-3 7-5 12-5 5 0 10 2 13 5z m179 143c0-40-9-77-29-110-20-34-46-60-80-80-33-20-70-29-110-29-40 0-77 9-110 29-34 20-60 46-80 80-20 33-29 70-29 110 0 40 9 77 29 110 20 34 46 60 80 80 33 20 70 29 110 29 40 0 77-9 110-29 34-20 60-46 80-80 20-33 29-70 29-110z"/>
<glyph glyph-name="chevron-circle-right" unicode="&#8594;" d="M241 113l130 130c4 4 6 8 6 13 0 5-2 9-6 13l-130 130c-3 3-7 5-12 5-5 0-10-2-13-5l-29-30c-4-3-6-7-6-12 0-5 2-10 6-13l87-88-87-88c-4-3-6-8-6-13 0-5 2-9 6-12l29-30c3-3 8-5 13-5 5 0 9 2 12 5z m234 143c0-40-9-77-29-110-20-34-46-60-80-80-33-20-70-29-110-29-40 0-77 9-110 29-34 20-60 46-80 80-20 33-29 70-29 110 0 40 9 77 29 110 20 34 46 60 80 80 33 20 70 29 110 29 40 0 77-9 110-29 34-20 60-46 80-80 20-33 29-70 29-110z"/>
<glyph glyph-name="addstore" unicode="&#84;" d="M412 236c-53 0-96-43-96-96 0-53 43-96 96-96 53 0 96 43 96 96 0 53-43 96-96 96z m48-106l-38 0 0-38-20 0 0 38-38 0 0 20 38 0 0 38 20 0 0-38 38 0z m-71 208l-37 49c-1 2-3 4-5 5l0 59c0 13-11 24-24 24l-246 0c-13 0-24-11-24-24l0-59c-2-1-4-3-5-5l-37-49c-5-6-8-14-8-22l0-12c0-21 17-37 37-37l0-160c0-13 11-24 25-24l270 0c14 0 25 11 25 24l0 160c20 0 36 16 36 37l0 12c0 8-2 16-7 22z m-66 113l0-49-246 0 0 49z m-194-160l-52 0 49 86 27 0z m37 86l28 0 0-86-53 0z m40 0l28 0 24-86-52 0z m41 0l26 0 50-86-52 0z m-219-73l0 12c0 3 1 5 2 7l37 49c3 3 6 5 10 5l35 0-49-86-23 0c-7 0-12 6-12 13z m221-197l-92 0 0 123 92 0z m86 0l-74 0 0 123c0 7-5 12-12 12l-92 0c-7 0-12-5-12-12l0-123-80 0 0 160 270 0z m37 197c0-7-6-13-12-13l-23 0-49 86 35 0c4 0 7-2 9-5l37-49c2-2 3-4 3-7z"/>
<glyph glyph-name="goback" unicode="&#85;" d="M368 67c9-9 9-18 0-25-8-9-17-9-24 0 0 0-201 202-201 202-8 8-8 16 0 25 0 0 201 202 201 202 7 9 16 9 24 0 9-7 9-16 0-25 0 0-183-190-183-190 0 0 183-189 183-189"/>
<glyph glyph-name="hammenubuscoinfo-logopruebalogosolo" unicode="&#86;" d="M410 282c7 0 13-3 18-8 5-5 7-11 7-18 0-7-2-13-7-18-6-5-12-8-18-8 0 0-308 0-308 0-6 0-12 3-18 8-5 5-7 11-7 18 0 7 2 13 7 18 5 5 11 8 18 8 0 0 308 0 308 0m-308 51c-6 0-12 2-18 7-5 6-7 12-7 18 0 7 2 13 7 18 5 5 11 8 18 8 0 0 308 0 308 0 7 0 13-3 18-8 5-5 7-11 7-18 0-6-2-12-7-18-6-5-12-7-18-7 0 0-308 0-308 0m308-154c7 0 13-2 18-7 5-6 7-12 7-18 0-7-2-13-7-18-6-5-12-8-18-8 0 0-308 0-308 0-6 0-12 3-18 8-5 5-7 11-7 18 0 6 2 12 7 18 5 5 11 7 18 7 0 0 308 0 308 0"/>
<glyph glyph-name="bilogo" unicode="&#83;" d="M30 274c1 60 22 111 61 155 31 35 68 60 113 73 57 15 110 4 158-26 57-35 95-85 112-150 17-63 4-120-32-174-21-30-46-55-75-78-4-4-7-4-11 0-5 6-10 12-16 17-4 4-4 7 0 12 21 27 39 55 54 86 30 63 18 132-30 181-57 56-146 60-208 10-39-32-59-73-58-123 1-35 13-67 29-97 11-20 23-39 37-56 4-5 5-8 0-13-7-5-12-12-18-18-3-3-5-4-9 0-53 44-93 97-104 168-2 11-3 22-3 33z m299-37c0-39-33-73-73-73-40-1-73 32-73 72-1 41 31 74 72 74 39 1 73-33 74-73z m16-173c-5 5-10 9-14 15-4 4-7 3-11-1-19-23-39-45-60-66-1-2-2-2-3-3 0 0-1-1-1-1 0 0 0 0 0 0 0 0 0-1 0-1 0 0 0-1 0-1 0 0 1 0 1-1 0 0 0 0 0 0 0 0 0 0 0 0 1 0 1 0 1 0 0 0 0 0 0 0 31 14 59 31 87 51 3 2 3 5 0 8z m-95-55c0 0 0 0 0 0-1 0-1 0-1 1-1 0-2 1-2 2-22 22-43 44-63 67-4 5-6 5-10 0-4-5-9-9-13-13-7-7-7-7 1-13 26-19 55-33 84-47 1 0 2 0 2-1 1 0 1 1 1 1 0 0 0-1 0-1 0 1 0 1 0 1 1 0 1 0 1 0 0 1 0 1 0 2 0 0 0 0 0 0 0 0 0 1 0 1z"/>
<glyph glyph-name="1122logo" unicode="&#87;" d="M173 248l-90 0c-20 0-39-9-53-22-14-14-23-33-23-55l0-90c0-21 9-41 23-55 14-13 33-21 53-21l90 0c42 0 77 34 77 76l0 90c0 42-35 77-77 77z m-13-161c10 0 19-8 19-18 0-10-9-18-19-18l-64 0c-7 0-14 4-17 11-3 6-1 14 4 19l55 60c3 3 4 7 4 10 0 8-6 14-14 14-8 0-14-6-14-14 0-10-8-18-18-18-10 0-18 8-18 18 0 28 22 51 50 51 28 0 51-23 51-51 0-13-5-25-15-35l-26-29z m271 161l-89 0c-21 0-40-9-54-22-14-14-23-33-23-55l0-90c0-21 9-41 23-55 14-13 33-21 54-21l89 0c43 0 77 34 77 76l0 90c0 42-34 77-77 77z m-12-161c10 0 18-8 18-18 0-10-8-18-18-18l-65 0c-7 0-14 4-16 11-3 6-2 14 3 19l55 60c3 3 4 7 4 10 0 8-6 14-14 14-7 0-14-6-14-14 0-10-8-18-18-18-10 0-18 8-18 18 0 28 23 51 50 51 28 0 51-23 51-51 0-13-5-25-14-35l-27-29z m-246 419l-90 0c-20 0-39-8-53-22-14-14-23-33-23-55l0-90c0-21 9-40 23-54 14-14 33-22 53-22l90 0c42 0 77 34 77 76l0 90c0 43-35 77-77 77z m-16-179c0-10-8-18-18-18-10 0-18 8-18 18l0 94c0 1-2 2-3 2-10 0-19 9-19 19 0 10 9 18 19 18 21 0 39-18 39-39z m274 179l-89 0c-21 0-40-8-54-22-14-14-23-33-23-55l0-90c0-21 9-40 23-54 14-14 33-22 54-22l89 0c43 0 77 34 77 76l0 90c0 43-34 77-77 77z m-16-179c0-10-8-18-18-18-10 0-18 8-18 18l0 94c0 1-1 2-3 2-10 0-18 9-18 19 0 10 8 18 18 18 22 0 39-18 39-39l0-94z"/>
<glyph glyph-name="gofwd" unicode="&#88;" d="M144 67c0 0 183 189 183 189 0 0-183 190-183 190-9 9-9 18 0 25 8 9 17 9 24 0 0 0 201-202 201-202 8-9 8-17 0-25 0 0-201-202-201-202-7-9-16-9-24 0-9 7-9 16 0 25"/>
<glyph glyph-name="uveg" unicode="&#89;" d="M366 311c0 5-2 9-6 13-3 3-8 5-13 5-32 0-63-5-90-14-28-9-53-22-75-38-21-16-44-37-67-63-3-4-5-8-5-13 0-5 2-9 5-13 4-3 8-5 13-5 5 0 9 2 13 5 5 5 12 12 21 21 9 9 15 15 19 18 26 24 52 41 77 51 25 10 55 15 89 15 5 0 10 1 13 5 4 4 6 8 6 13z m146 56c0-18-2-36-6-55-8-42-26-79-52-109-27-30-61-56-103-77-40-20-82-31-125-31-28 0-55 5-81 14-3 1-12 5-26 12-13 7-23 10-27 10-3 0-7-3-11-9-5-6-9-12-13-20-4-7-9-14-15-20-6-6-12-9-17-9-6 0-11 1-15 3-4 2-7 5-9 7-2 3-4 7-7 12-1 1-1 2-2 3-1 2-1 3-2 3 0 1 0 2-1 3 0 1 0 2 0 4 0 6 3 13 9 21 6 7 12 13 19 18 7 6 14 11 20 16 6 6 9 11 9 14 0 1-2 5-4 11-3 6-5 11-5 13-2 9-3 19-3 29 0 22 5 43 13 63 8 20 19 38 34 53 14 15 30 28 49 40 18 11 37 20 58 27 10 3 24 6 41 7 17 2 35 2 52 3 17 0 34 1 51 1 17 1 32 4 46 7 14 4 25 9 33 16l8 9 9 8 7 6 11 4 12 1c8 0 14-4 20-13 6-8 11-19 14-32 3-12 5-24 7-35 1-11 2-20 2-28z"/>
<glyph glyph-name="uhot" unicode="&#90;" d="M505 458l-50 15c-3 1-6 1-9-1-2-2-4-4-4-7-8-46-22-82-31-101-32 11-66 5-95-32-13-16-66-147-129-175-69-30-137-15-173-2-4 1-9 0-12-4-3-3-3-8 0-12 22-32 71-82 164-97 126-22 244 67 293 148 27 45 38 97 5 136 26 41 42 97 48 120 1 5-2 11-7 12z"/>
<glyph glyph-name="ugf" unicode="&#48;" d="M256 512c-141 0-256-115-256-256 0-141 115-256 256-256 141 0 256 115 256 256 0 141-115 256-256 256z m-6-319c-6-7-13-13-24-18-11-6-25-8-42-8-21 0-39 6-52 19-14 14-21 31-21 52l0 36c0 21 7 38 20 51 13 14 30 20 50 20 21 0 38-5 49-15 11-10 17-24 17-41l0-1-33 0c0 10-3 17-8 22-6 6-13 8-23 8-11 0-19-4-26-12-6-8-9-19-9-32l0-36c0-13 3-24 9-32 7-8 16-12 28-12 8 0 14 0 19 2 5 2 8 4 12 6l0 32-32 0 0 24 66 0z m151 123l-87 0 0-48 74 0 0-26-74 0 0-72-34 0 0 172 121 0z"/>
</font>
</defs>
</svg>
