<svg id="line_icons" height="512" viewBox="0 0 74 74" width="512" xmlns="http://www.w3.org/2000/svg" data-name="line icons"><path d="m63.584 55.52h-53.168a4.575 4.575 0 0 1 -4.577-4.369l-.453-13.56a8.981 8.981 0 0 1 2.478-6.591 12.434 12.434 0 0 0 2.333-3.43l4.14-11.26a7.455 7.455 0 0 1 6.971-4.862h31.384a7.455 7.455 0 0 1 6.971 4.862l4.17 11.332a12.421 12.421 0 0 0 2.302 3.358 8.982 8.982 0 0 1 2.478 6.6l-.452 13.534a4.577 4.577 0 0 1 -4.577 4.386zm-42.276-42.073a5.448 5.448 0 0 0 -5.094 3.553l-4.17 11.331a14.48 14.48 0 0 1 -2.735 4.052 6.974 6.974 0 0 0 -1.924 5.129l.453 13.559a2.575 2.575 0 0 0 2.578 2.449h53.168a2.578 2.578 0 0 0 2.579-2.462l.452-13.533a6.984 6.984 0 0 0 -1.924-5.142 14.442 14.442 0 0 1 -2.706-3.98l-4.199-11.403a5.448 5.448 0 0 0 -5.094-3.553z"/><path d="m57.167 31.642h-40.334a1 1 0 0 1 -.895-1.448l.1-.215 4.225-11.489a1.11 1.11 0 0 1 1.045-.73h31.384a1.115 1.115 0 0 1 1.05.743l4.322 11.7a1.021 1.021 0 0 1 -.061.968 1 1 0 0 1 -.836.471zm-38.877-2h37.423l-3.64-9.882h-30.146zm33.57-10.462.009.024zm-29.715-.013-.009.024z"/><path d="m20.62 62.553h-6.33a2.4 2.4 0 0 1 -2.39-2.393v-5.64a1 1 0 0 1 1-1h9.118a1 1 0 0 1 1 1v5.64a2.4 2.4 0 0 1 -2.398 2.393zm-6.72-7.033v4.64a.394.394 0 0 0 .394.393h6.33a.4.4 0 0 0 .394-.393v-4.64z"/><path d="m59.71 62.553h-6.33a2.4 2.4 0 0 1 -2.394-2.393v-5.64a1 1 0 0 1 1-1h9.114a1 1 0 0 1 1 1v5.64a2.4 2.4 0 0 1 -2.39 2.393zm-6.724-7.033v4.64a.4.4 0 0 0 .394.393h6.33a.394.394 0 0 0 .394-.393v-4.64z"/><path d="m22.449 47.638a2.378 2.378 0 0 1 -.5-.054l-7.349-1.431a2.335 2.335 0 0 1 -1.711-3.114l.942-2.5a2.336 2.336 0 0 1 2.756-1.439l5.131 1.143.025.006a2.327 2.327 0 0 1 1.559 1.3l1.268 2.781a2.339 2.339 0 0 1 -2.121 3.307zm-6.423-6.6a.334.334 0 0 0 -.321.215l-.942 2.5a.333.333 0 0 0 .018.28.337.337 0 0 0 .226.169l7.344 1.43a.337.337 0 0 0 .354-.114.323.323 0 0 0 .045-.351l-1.268-2.781a.337.337 0 0 0 -.217-.185l-5.138-1.145a.4.4 0 0 0 -.101-.02z"/><path d="m51.548 47.64a2.342 2.342 0 0 1 -2.118-3.309l1.27-2.781a2.331 2.331 0 0 1 1.56-1.3l.025-.006 5.153-1.144a2.33 2.33 0 0 1 2.728 1.447l.942 2.5a2.336 2.336 0 0 1 -1.69 3.11l-7.386 1.439a2.283 2.283 0 0 1 -.484.044zm1.187-5.446a.34.34 0 0 0 -.218.186l-1.267 2.78a.337.337 0 0 0 .378.469l7.386-1.439a.323.323 0 0 0 .2-.164.331.331 0 0 0 .018-.279l-.942-2.5a.334.334 0 0 0 -.4-.208z"/><path d="m44.143 42.678h-14.286a1 1 0 0 1 0-2h14.286a1 1 0 0 1 0 2z"/><path d="m40.039 47.466h-6.078a1 1 0 0 1 0-2h6.078a1 1 0 0 1 0 2z"/><path d="m9.491 31.642h-.042l-5.441-.224a2.125 2.125 0 0 1 -2.008-2.225l.082-1.777a3.352 3.352 0 0 1 4.109-3.116l5.614 1.258a1 1 0 1 1 -.438 1.951l-5.621-1.26a1.354 1.354 0 0 0 -1.663 1.254l-.083 1.782a.128.128 0 0 0 .121.135l5.41.223a1 1 0 0 1 -.04 2z"/><path d="m64.509 31.642a1 1 0 0 1 -.04-2l5.441-.224a.129.129 0 0 0 .09-.133l-.083-1.779a1.353 1.353 0 0 0 -1.656-1.255l-5.628 1.261a1 1 0 1 1 -.438-1.951l5.621-1.26a3.353 3.353 0 0 1 4.1 3.114l.084 1.778a2.119 2.119 0 0 1 -1.975 2.223l-5.472.225z"/></svg>