<svg xmlns="http://www.w3.org/2000/svg" width="16" height="16"><path d="M11.663 7.551c-.69 0-1.253-.562-1.253-1.253a1.254 1.254 0 0 1 2.505 0c0 .691-.561 1.253-1.252 1.253M2.66 6.555a.64.64 0 0 0 .454-.19c.018-.017 1.792-1.778 4.177-2.185 1.025-.175 2.03-.074 2.844.098a2.53 2.53 0 0 0-1.01 2.02 2.539 2.539 0 0 0 2.537 2.537 2.54 2.54 0 0 0 2.536-2.537c0-.976-.555-1.823-1.365-2.247a.638.638 0 0 0-.32-.35c-.107-.052-2.654-1.262-5.438-.786-2.785.475-4.787 2.461-4.87 2.545a.642.642 0 0 0 .455 1.095" fill="#159de1"/><path d="M4.555 8.31c.69 0 1.253.561 1.253 1.252a1.254 1.254 0 0 1-2.505 0c0-.69.561-1.253 1.252-1.253M3.35 11.793c.061.121.16.225.29.288.09.043 1.887.897 4.102.897.432 0 .882-.033 1.338-.11 2.784-.476 4.786-2.462 4.87-2.546a.642.642 0 0 0-.91-.905c-.018.018-1.792 1.778-4.176 2.185-.97.166-1.922.083-2.712-.072a2.53 2.53 0 0 0 .94-1.968 2.54 2.54 0 0 0-2.537-2.536A2.539 2.539 0 0 0 2.02 9.562c0 .963.539 1.802 1.331 2.23" fill="#159de1"/></svg>