<svg xmlns="http://www.w3.org/2000/svg" width="16" height="16"><path d="M11.331 9.794a3.226 3.226 0 0 1-3.222 3.222 3.226 3.226 0 0 1-3.222-3.222 3.226 3.226 0 0 1 3.222-3.222 3.226 3.226 0 0 1 3.222 3.222m-6.89-5.522c.405.466.869.998 1.577 1.358a4.666 4.666 0 0 0-2.574 4.164 4.67 4.67 0 0 0 4.665 4.664 4.67 4.67 0 0 0 4.665-4.664c0-1.82-1.05-3.395-2.574-4.164.708-.36 1.172-.892 1.576-1.358.641-.74 1.148-1.325 2.524-1.325a.722.722 0 0 0 0-1.443c-2.035 0-2.91 1.011-3.615 1.823-.642.741-1.106 1.277-2.378 1.277H7.91c-1.273 0-1.737-.536-2.379-1.277-.704-.812-1.58-1.823-3.614-1.823a.722.722 0 0 0 0 1.443c1.376 0 1.882.585 2.524 1.325" fill="#159de1"/></svg>