<svg height="512pt" viewBox="0 -11 512.02797 512" width="512pt" xmlns="http://www.w3.org/2000/svg"><path d="M441.645 247.594l-11.458-32.555-123.582 123.586c-12.074 12.098-28.16 18.75-45.25 18.75-17.085 0-33.171-6.652-45.246-18.75l-90.668-90.668c-12.097-12.074-18.754-28.16-18.754-45.246 0-17.09 6.657-33.176 18.754-45.25 12.075-12.094 28.16-18.75 45.246-18.75 17.09 0 33.176 6.656 45.25 18.75l45.418 45.398L383.043 81.176l-8.195-23.254-3.774-22.57c-2.367-14.465-11.906-26.454-25.453-32.067-13.61-5.652-28.797-3.902-40.723 4.653l-59.285 42.921-59.949-43.03c-12.031-8.49-27.262-10.177-40.789-4.5-13.438 5.632-22.89 17.6-25.258 31.98l-11.605 72.254-72.684 12.074c-14.441 2.37-26.43 11.906-32.062 25.453-5.633 13.59-3.883 28.82 4.671 40.746L50.84 245.12 7.809 305.066c-8.47 12.032-10.176 27.286-4.5 40.79 5.652 13.44 17.597 22.89 31.976 25.261l72.258 11.625 12.074 72.66c2.348 14.422 11.82 26.391 25.258 32.024 13.547 5.672 28.8 3.988 40.941-4.61l59.286-42.921 59.796 42.921c7.317 5.227 15.829 7.914 24.47 7.914 5.48 0 10.984-1.066 16.253-3.261 13.57-5.633 23.086-17.621 25.453-32.024l11.625-72.254 72.66-12.074c14.422-2.37 26.371-11.82 32.024-25.262 5.676-13.503 3.988-28.757-4.61-40.937zm0 0" fill="#ffc107"/><path d="M261.355 314.71a21.272 21.272 0 0 1-15.082-6.25l-90.668-90.667c-8.34-8.34-8.34-21.824 0-30.164 8.344-8.344 21.825-8.344 30.168 0l75.582 75.582 214.25-214.25c8.344-8.34 21.825-8.34 30.168 0 8.34 8.34 8.34 21.824 0 30.164L276.438 308.461a21.273 21.273 0 0 1-15.083 6.25zm0 0" fill="#607d8b"/></svg>