<svg xmlns="http://www.w3.org/2000/svg" width="16" height="16" id="svg3545"><style>.signosHor{fill:#159de1}</style><g id="layer1"><path d="M.965 12.454c.526 0 .96-.434 1.508-.983.28-.281.926-.94 1.169-.917.196.02.604.441.873.721.576.596 1.226 1.269 2.097 1.177.5-.03.923-.452 1.452-.981.28-.281.925-.94 1.169-.917.196.02.604.441.873.721.54.558 1.146 1.186 1.935 1.186.048 0 .096-.003.146-.007h.06c.527 0 .96-.434 1.509-.983.28-.281.944-.93 1.168-.917a.616.616 0 0 0 .117-1.227c-.808-.077-1.526.64-2.158 1.273-.218.218-.541.542-.69.62h-.04a.59.59 0 0 0-.076.006c-.273.028-.722-.433-1.084-.807-.489-.507-.994-1.03-1.644-1.092-.807-.077-1.525.64-2.157 1.273-.221.22-.55.55-.695.624l-.029.003h-.01c-.275 0-.707-.447-1.056-.808-.489-.507-.994-1.03-1.644-1.092-.807-.077-1.526.64-2.157 1.273-.221.22-.55.55-.696.624a.617.617 0 0 0 .06 1.23" id="path212" fill="#159de1"/><path d="M.965 7.174c.526 0 .96-.434 1.508-.983.28-.28.944-.93 1.168-.916.197.019.604.441.874.72.575.596 1.225 1.27 2.097 1.177.5-.028.923-.451 1.452-.98.28-.281.94-.931 1.168-.917.197.019.604.441.874.72.54.559 1.146 1.186 1.935 1.186.048 0 .096-.002.146-.007h.06c.527 0 .96-.434 1.509-.983.28-.28.934-.933 1.168-.916a.615.615 0 1 0 .117-1.227c-.808-.077-1.526.64-2.157 1.272-.218.219-.542.543-.69.621h-.04a.586.586 0 0 0-.077.005c-.275.033-.722-.432-1.084-.807-.489-.506-.994-1.03-1.644-1.091-.807-.077-1.525.64-2.157 1.272-.221.221-.55.55-.695.624l-.03.004c-.267.017-.711-.442-1.065-.809-.489-.506-.994-1.03-1.644-1.091-.806-.077-1.526.64-2.157 1.272-.221.221-.55.55-.695.624a.617.617 0 0 0 .059 1.23" class="signosHor" id="path216"/></g></svg>