<svg xmlns="http://www.w3.org/2000/svg" width="16" height="16"><path d="M2.685 8.536a.688.688 0 0 0 .066-.972c-.947-1.087-1.244-2.272-.814-3.249a2.035 2.035 0 0 1 1.821-1.233c1.21-.033 2.407.926 3.302 2.633l.27 7.7a.689.689 0 0 0 1.377 0l.27-7.7c.895-1.707 2.095-2.663 3.303-2.633a2.036 2.036 0 0 1 1.821 1.233c.43.977.132 2.162-.815 3.25a.689.689 0 1 0 1.039.904c1.293-1.484 1.68-3.244 1.038-4.708a3.401 3.401 0 0 0-3.047-2.056C10.69 1.654 9.15 2.71 8.02 4.607 6.887 2.711 5.347 1.654 3.722 1.705A3.401 3.401 0 0 0 .675 3.76C.032 5.225.42 6.985 1.713 8.47c.25.288.685.317.972.067" fill="#159de1"/></svg>