<svg xmlns="http://www.w3.org/2000/svg" width="16" height="16"><path d="M13.586 10.285c-.675.458-1.258.495-2.612-.545l.004-.041c.044-.57.117-1.524.65-1.969.285-.238.687-.326 1.23-.27.688.07 1.112.4 1.257.978.18.715-.136 1.58-.53 1.847m-.621-3.86c-.826-.086-1.498.086-2.002.507-.526.439-.768 1.06-.89 1.644-.17-.51-.207-1.114-.249-1.77-.053-.835-.113-1.782-.477-2.676-.54-1.328-1.92-1.7-3.046-1.48-.719.141-1.302.49-1.669.963a2.564 2.564 0 0 0-1.227-.85c-.83-.26-1.784-.08-2.618.493a.52.52 0 0 0 .59.857c.56-.386 1.202-.519 1.717-.358.483.152.858.548 1.113 1.178v5.001a.52.52 0 0 0 1.04 0V4.835c0-.635.63-1.042 1.254-1.165.656-.128 1.544.018 1.883.852.3.737.352 1.557.403 2.35.074 1.18.151 2.399 1.062 3.283-.185.494-.638 1.199-1.297 1.753-.548.461-1.401.96-2.36.72a.52.52 0 0 0-.252 1.01c.259.064.513.094.762.094 1.835 0 3.378-1.62 3.99-2.909 1.214.855 2.272 1.141 3.478.322.801-.543 1.229-1.871.954-2.961-.252-1.003-1.04-1.644-2.16-1.759" fill="#159de1"/></svg>