<svg xmlns="http://www.w3.org/2000/svg" width="16" height="16"><path d="M13.936 9.768a.557.557 0 0 0-.84.732l.593.68a.549.549 0 0 0-.176.1c-.263.222-.543.283-.857.19-.57-.172-1.153-.832-1.357-1.536-.192-.66-.15-2.58-.12-3.981.011-.526.022-1.02.022-1.426 0-.7-.203-1.293-.587-1.714a1.882 1.882 0 0 0-1.407-.615c-.616 0-1.254.284-1.699.828a1.92 1.92 0 0 0-1.562-.79c-.505 0-1.017.199-1.424.568a1.98 1.98 0 0 0-1.794-1.051c-1.098.015-2.21.89-2.21 2.535a.557.557 0 0 0 1.114 0c0-.966.576-1.414 1.11-1.42h.013c.42 0 .912.28.933 1.076.007.282.016.63.024 1.016.005 2.3.095 5.118.096 5.147a.557.557 0 1 0 1.114-.027c-.001-.037-.052-3.098-.096-5.133v-.184c0-.918.577-1.413 1.12-1.413.172 0 .422.051.632.296.222.259.34.667.34 1.18 0 .29-.004.738-.008 1.258-.009 1.336-.021 3.164.008 3.965.01.295.249.53.543.537a.548.548 0 0 0 .569-.51c.1-1.22.042-3.558.014-4.68-.007-.281-.013-.484-.013-.57 0-.983.606-1.514 1.175-1.514.162 0 .395.044.585.252.194.212.296.545.296.963 0 .4-.01.884-.022 1.402-.035 1.637-.075 3.492.164 4.315.31 1.07 1.177 2.013 2.107 2.292.199.06.398.09.594.09.227 0 .45-.04.663-.12l-.528.73a.557.557 0 0 0 .903.653l1.355-1.874a.557.557 0 0 0-.03-.692l-1.357-1.555z" fill="#159de1"/></svg>