<svg xmlns="http://www.w3.org/2000/svg" width="16" height="16"><path d="M5.096 10.75a1.254 1.254 0 0 1 0-2.505c.69 0 1.253.561 1.253 1.252 0 .69-.562 1.253-1.253 1.253m4.128 2.617c.501.75 1.373 1.203 2.194 1.203.246 0 .487-.04.712-.126.491-.185 1.601-.862 1.295-3.138a.641.641 0 1 0-1.272.17c.13.96-.044 1.605-.476 1.768-.422.159-1.07-.116-1.385-.59-.514-.771-.068-2.454.954-3.601 1.418-1.59 2.26-4.22.757-6.238-1.08-1.45-2.978-1.83-4.836-.961C5.34 2.706 4.668 4.608 5.27 6.97c-.058-.004-.116-.01-.175-.01A2.54 2.54 0 0 0 2.56 9.498a2.54 2.54 0 0 0 2.536 2.536 2.539 2.539 0 0 0 2.536-2.536c0-.718-.3-1.366-.782-1.828-.476-1.166-1.207-3.687.86-4.652 1.321-.618 2.541-.406 3.264.564.752 1.01.858 2.887-.686 4.618-1.268 1.422-2.012 3.744-1.064 5.168" fill="#159de1"/></svg>