<svg xmlns="http://www.w3.org/2000/svg" width="16" height="16"><path d="M14.407 8.071a.683.683 0 0 0-.683-.683h-3.023c.267-2.107 1.656-3.81 1.671-3.828a.71.71 0 0 0-1.091-.91c-.077.091-1.748 2.124-2.011 4.738H6.952C6.69 4.774 5.018 2.741 4.941 2.65a.71.71 0 0 0-1.092.91c.016.02 1.405 1.722 1.672 3.83H2.403a.683.683 0 0 0 0 1.365h3.118c-.267 2.108-1.656 3.81-1.672 3.829a.71.71 0 0 0 1.092.91c.077-.092 1.748-2.124 2.011-4.739H9.27c.263 2.615 1.934 4.647 2.01 4.74a.71.71 0 0 0 1.002.09.71.71 0 0 0 .09-1.002c-.016-.019-1.405-1.71-1.672-3.828h3.024a.683.683 0 0 0 .683-.683" fill="#159de1"/></svg>