<svg xmlns="http://www.w3.org/2000/svg" width="16" height="16"><path d="M14.484 2.25a.63.63 0 0 0-.037-.152l-.003-.01-.001-.002a.64.64 0 0 0-.112-.176.652.652 0 0 0-.123-.111l-.002-.001a.648.648 0 0 0-.186-.083.639.639 0 0 0-.17-.025H9.9a.642.642 0 1 0 0 1.283h2.383L7.565 7.617 6.03 6.13a.641.641 0 1 0-.894.922L6.65 8.518l-4.823 4.746a.642.642 0 0 0 .9.915l4.844-4.767 1.698 1.647a.64.64 0 0 0 .908-.014.642.642 0 0 0-.014-.907L8.486 8.51l4.723-4.648V6.59a.642.642 0 0 0 1.283 0V2.332c0-.013-.003-.025-.004-.037a.972.972 0 0 0-.004-.044" fill="#159de1"/></svg>