<svg xmlns="http://www.w3.org/2000/svg" viewBox="0 0 504.72 504.72"><path d="M252.952.36C113.784.36 0 104.832 0 233.696 0 307.12 36.952 372.624 92.952 415.4v88.96l86.776-47.088c22.896 6.344 47.632 9.76 72.752 9.76 139.168 0 252.24-104.472 252.24-233.336S392.12.36 252.952.36zm25.056 314.224l-64.184-68.448-125.216 68.448L226.352 168.36l65.736 68.448 123.656-68.448-137.736 146.224z" fill="#3ad5f9"/><path d="M252.952 19.648C113.784 19.648 0 104.824 0 233.696 0 307.12 36.952 372.624 92.952 415.4v88.96l86.776-47.088c22.896 6.344 47.632 9.76 72.752 9.76 139.168 0 252.24-104.472 252.24-233.336S392.12 19.648 252.952 19.648zm25.056 294.936l-64.184-68.448-125.216 68.448L226.352 168.36l65.736 68.448 123.656-68.448-137.736 146.224z" fill="#0382f9"/><g fill="#0656f7"><path d="M401.064 176.488L283.4 227.76l8.688 9.04z"/><path d="M412.984 171.288L278.008 314.584l-56.24-59.968-115.68 50.408-17.48 9.56 3.096-3.288-64.544 27.712c16.24 29.648 38.416 55.84 65.792 76.392v88.96l86.776-47.088c22.896 6.344 47.632 9.76 72.752 9.76 139.168 0 252.24-104.472 252.24-233.336 0-33.192-8.768-64.144-22.256-92.728l-69.48 30.32z"/></g></svg>