<svg xmlns="http://www.w3.org/2000/svg" viewBox="0 0 502.596 502.596"><path d="M502.073 16.718C502.073 7.314 494.759 0 485.355 0H21.42C9.927 0 .522 9.404.522 20.898v321.829h501.551V16.718z" fill="#40596b"/><path d="M.522 342.727v39.706c0 11.494 9.404 20.898 20.898 20.898h459.755c11.494 0 20.898-9.404 20.898-20.898v-39.706H.522z" fill="#cdd6e0"/><g fill="#f2f2f2"><circle cx="457.143" cy="373.029" r="11.494"/><circle cx="411.167" cy="373.029" r="11.494"/></g><path fill="#acb3ba" d="M355.788 464.98h-208.98l22.988-45.976 6.269-15.673h150.466l6.269 15.673z"/><path d="M373.551 464.98H129.045a18.73 18.73 0 0 0-18.808 18.808 18.73 18.73 0 0 0 18.808 18.808h244.506a18.73 18.73 0 0 0 18.808-18.808 18.73 18.73 0 0 0-18.808-18.808z" fill="#cdd6e0"/><path fill="#9eacb7" d="M332.8 419.004H169.796l6.269-15.673h150.466z"/><path fill="#fff" d="M33.959 30.302h434.678V311.38H33.959z"/><path d="M253.388 72.098h160.914V98.22H253.388zm0 43.886h160.914v26.122H253.388zM89.339 201.665h160.914v26.122H89.339zm0 42.841h160.914v26.122H89.339z" fill="#cdd6e0"/><path fill="#ffd15c" d="M87.249 61.649H230.4v90.906H87.249z"/><path fill="#ff7058" d="M272.196 191.216h143.151v90.906H272.196z"/></svg>